<svg width="32px" height="32px" xmlns="http://www.w3.org/2000/svg">
    <g stroke="none" stroke-width="1" fill="none" fill-rule="evenodd">
        <g id="Group-42">
            <path d="M0,16 C0,24.8364944 7.16350562,32 16,32 C24.8364944,32 32,24.8364944 32,16 C32,7.16350562 24.8364944,0 16,0 C7.16350562,0 0,7.16350562 0,16" id="Fill-9" fill="#E5379C"></path>
            <polygon id="Fill-13" fill="#14203E" points="23.1873258 21.4794607 30.2023371 8.71919101 18.4045843 8.71919101 15.9102022 12.4944719 13.730427 8.71919101 1.7978427 8.71919101 8.81267416 21.4794607 8.81267416 25.7978427 23.2042247 25.7978427"></polygon>
            <path d="M21.9325843,21.4872809 C21.9325843,18.2106966 19.2765843,15.5546966 16,15.5546966 C12.7234157,15.5546966 10.0674157,18.2106966 10.0674157,21.4872809 L10.0674157,25.7977528 L21.9325843,25.7977528 L21.9325843,21.4872809 Z" id="Fill-15" fill="#FDBD27"></path>
            <path d="M12.7640449,8.71910112 C12.7640449,10.8041348 11.0739775,12.494382 8.98876404,12.494382 C6.90373034,12.494382 5.21348315,10.8041348 5.21348315,8.71910112 L12.7640449,8.71910112 Z" id="Fill-17" fill="#FC9322"></path>
            <path d="M26.7865169,8.71910112 C26.7865169,10.8041348 25.0964494,12.494382 23.011236,12.494382 C20.9262022,12.494382 19.2359551,10.8041348 19.2359551,8.71910112 L26.7865169,8.71910112 Z" id="Fill-19" fill="#FC9322"></path>
            <path d="M7.3672809,12.1244764 L8.98885393,8.71917303 L5.21357303,8.71917303 C5.21357303,10.2228135 6.09483146,11.5173753 7.3672809,12.1244764" id="Fill-21" fill="#FFFFFF"></path>
            <path d="M21.3897528,12.1244764 L23.0113258,8.71917303 L19.2360449,8.71917303 C19.2360449,10.2228135 20.1173034,11.5173753 21.3897528,12.1244764" id="Fill-23" fill="#FFFFFF"></path>
            <polygon id="Fill-37" fill="#14203E" points="15.6962876 25.7977348 16.3037483 25.7977348 16.3037483 16.5499146 15.6962876 16.5499146"></polygon>
            <polygon id="Fill-39" fill="#14203E" points="12.6122427 25.7977348 13.2197034 25.7977348 13.2197034 16.5499146 12.6122427 16.5499146"></polygon>
            <polygon id="Fill-40" fill="#14203E" points="18.7803326 25.7977348 19.3877933 25.7977348 19.3877933 16.5499146 18.7803326 16.5499146"></polygon>
            <path d="M16,16.6333483 C18.6764944,16.6333483 20.8539326,18.8107865 20.8539326,21.4872809 L20.8539326,25.7977528 L21.9325843,25.7977528 L21.9325843,21.4872809 C21.9325843,18.2106966 19.2765843,15.5546966 16,15.5546966 C12.7234157,15.5546966 10.0674157,18.2106966 10.0674157,21.4872809 L10.0674157,25.7977528 L11.1460674,25.7977528 L11.1460674,21.4872809 C11.1460674,18.8107865 13.3235056,16.6333483 16,16.6333483" id="Fill-41" fill="#FC9322"></path>
        </g>
    </g>
</svg>
