<svg height="24" viewBox="0 0 140 26" fill="none" xmlns="http://www.w3.org/2000/svg">
<path d="M26.9469 15.386C28.2321 16.5945 29.9198 17.2904 31.6882 17.341C33.5118 17.341 34.4376 16.6811 34.4376 15.6463C34.4376 14.438 32.9631 14.0073 31.2549 13.6324C28.8547 13.115 25.9931 12.483 25.9931 9.37857C25.9931 7.11067 27.96 5.16188 31.4856 5.16188C33.4808 5.1151 35.4214 5.81255 36.9251 7.11686L35.6533 9.24535C34.8148 8.29729 33.2499 7.5785 31.5168 7.5785C29.9239 7.5785 28.9139 8.15167 28.9139 9.12761C28.9139 10.1903 30.301 10.5652 31.9501 10.937C34.3784 11.4544 37.3584 12.1453 37.3584 15.4232C37.3584 17.8646 35.3042 19.7236 31.5448 19.7236C29.1726 19.7236 27.003 18.9769 25.5566 17.5548L26.9469 15.386Z" fill="#1B1C30"/>
<path fill-rule="evenodd" clip-rule="evenodd" d="M45.8799 5.15967C41.5454 5.15967 38.8643 8.45979 38.8643 12.4292C38.8643 16.4235 41.5454 19.7236 45.8799 19.7236C50.2631 19.7236 52.926 16.4049 52.926 12.4354C52.926 8.46598 50.2661 5.15967 45.8799 5.15967ZM45.8799 7.82765C48.4299 7.82765 49.8452 9.98435 49.8452 12.4292C49.8452 14.902 48.4024 17.0587 45.8799 17.0587C43.3573 17.0587 41.945 14.8617 41.945 12.4292C41.945 9.99674 43.3298 7.82765 45.8799 7.82765Z" fill="#1B1C30"/>
<path d="M64.737 10.8901C64.737 8.74612 63.6545 8.04779 61.9693 8.04779C60.5686 8.08308 59.2631 8.76149 58.4328 9.88552V19.4723H55.4375V5.74756H58.4328V7.62205C59.6614 6.22815 61.4294 5.42348 63.2916 5.41064C66.2592 5.41064 67.7415 7.00334 67.7415 9.81507V19.4723H64.737V10.8901Z" fill="#1B1C30"/>
<path fill-rule="evenodd" clip-rule="evenodd" d="M75.3213 19.7236C77.1572 19.7236 78.7643 19.0698 79.7935 17.8925V19.3859H82.8069V10.1933C82.8069 6.45679 80.1118 5.16171 77.0428 5.16171C74.8829 5.11357 72.7906 5.91805 71.2169 7.40176L72.4531 9.49929C73.5242 8.37771 75.0056 7.74316 76.5545 7.74257C78.4769 7.74257 79.7935 8.72162 79.7935 10.3296V12.3931C78.7921 11.2312 77.1757 10.6116 75.3213 10.6116C73.0558 10.6116 70.5029 11.9345 70.5029 15.1257C70.5029 18.2023 73.0558 19.7236 75.3213 19.7236ZM76.4988 12.6874C77.8155 12.6874 79.1074 13.1769 79.7935 14.125V16.2287C79.1074 17.1799 77.8155 17.6663 76.4988 17.6663C74.8052 17.6663 73.5442 16.709 73.5442 15.1877C73.5442 13.6665 74.8052 12.6874 76.4988 12.6874Z" fill="#1B1C30"/>
<path d="M86.9524 16.2487V8.42554H84.5654V5.84804H86.9524V2.14648H90.089V5.84804H93.0132V8.42554H90.089V15.5204C90.089 16.4451 90.5651 17.1189 91.4594 17.1189C91.9734 17.1323 92.4737 16.9616 92.8588 16.6415L93.6051 18.8564C93.0389 19.361 92.1156 19.7236 90.6519 19.7236C88.236 19.7176 86.9524 18.4908 86.9524 16.2487Z" fill="#1B1C30"/>
<path d="M97.1254 22.5938C98.0726 22.5938 98.7041 22.3085 99.1065 21.3973L99.7968 19.8326L94.1074 5.91284H97.3266L101.375 16.2153L105.424 5.91284H108.671L101.979 22.1428C101.032 24.4776 99.3634 25.2109 97.2121 25.2477C96.6414 25.2375 96.0731 25.1707 95.5158 25.0483L95.977 22.3698C96.342 22.5162 96.7318 22.5922 97.1254 22.5938Z" fill="#1B1C30"/>
<path fill-rule="evenodd" clip-rule="evenodd" d="M109.927 5.49726V24.4945H112.93V17.3345C113.954 18.7552 115.606 19.5937 117.363 19.5841C120.94 19.5841 123.486 16.8956 123.486 12.3657C123.486 7.83586 120.94 5.15967 117.363 5.15967C115.616 5.15819 113.972 5.98006 112.93 7.3755V5.49726H109.927ZM112.93 9.64964C113.757 8.51553 115.071 7.83371 116.478 7.80823V7.80209C118.852 7.80209 120.369 9.67112 120.369 12.3473C120.369 15.0235 118.852 16.9324 116.478 16.9324C115.074 16.8943 113.765 16.2152 112.93 15.091V9.64964Z" fill="#1B1C30"/>
<path fill-rule="evenodd" clip-rule="evenodd" d="M139.306 12.7174C139.306 8.34513 136.694 5.15967 132.624 5.15967C128.609 5.15967 125.746 8.40401 125.746 12.423C125.746 16.8201 128.778 19.7236 132.848 19.7236C135.009 19.7236 137.003 19.0419 138.352 17.7187L137.003 15.7355C136.05 16.7116 134.476 17.257 133.157 17.257C130.603 17.257 129.057 15.5341 128.833 13.4363H139.306V12.7174ZM132.624 7.63863C135.29 7.63863 136.385 9.66828 136.443 11.3075H128.805C128.945 9.6094 130.097 7.63863 132.624 7.63863Z" fill="#1B1C30"/>
<path fill-rule="evenodd" clip-rule="evenodd" d="M0.948242 6.66621L10.9861 0.890869L21.0364 6.66621V18.22L10.9861 23.9922L0.948242 18.22V6.66621ZM10.9861 20.681L18.1437 16.5628V8.32335L10.9861 4.20514L3.82857 8.32335V16.5628L10.9861 20.681Z" fill="url(#paint0_linear_520_1625)"/>
<defs>
<linearGradient id="paint0_linear_520_1625" x1="-12.3472" y1="14.1862" x2="13.303" y2="29.194" gradientUnits="userSpaceOnUse">
<stop stop-color="#8002EF"/>
<stop offset="1" stop-color="#4BA9EA"/>
</linearGradient>
</defs>
</svg>
