<svg height="24" viewBox="0 0 140 26" fill="none" xmlns="http://www.w3.org/2000/svg">
<path d="M26.9469 15.3856C28.2321 16.594 29.9198 17.2899 31.6882 17.3405C33.5118 17.3405 34.4376 16.6806 34.4376 15.6458C34.4376 14.4375 32.9631 14.0068 31.2549 13.632C28.8547 13.1146 25.9931 12.4825 25.9931 9.37808C25.9931 7.11018 27.96 5.16139 31.4856 5.16139C33.4808 5.11461 35.4214 5.81206 36.9251 7.11637L35.6533 9.24486C34.8148 8.2968 33.2499 7.57801 31.5168 7.57801C29.9239 7.57801 28.9139 8.15118 28.9139 9.12713C28.9139 10.1898 30.301 10.5647 31.9501 10.9365C34.3784 11.4539 37.3584 12.1448 37.3584 15.4227C37.3584 17.8641 35.3042 19.7231 31.5448 19.7231C29.1726 19.7231 27.003 18.9764 25.5566 17.5543L26.9469 15.3856Z" fill="white"/>
<path fill-rule="evenodd" clip-rule="evenodd" d="M45.8799 5.15918C41.5454 5.15918 38.8643 8.4593 38.8643 12.4287C38.8643 16.423 41.5454 19.7231 45.8799 19.7231C50.2631 19.7231 52.926 16.4044 52.926 12.4349C52.926 8.46549 50.2661 5.15918 45.8799 5.15918ZM45.8799 7.82716C48.4299 7.82716 49.8452 9.98386 49.8452 12.4287C49.8452 14.9015 48.4024 17.0582 45.8799 17.0582C43.3573 17.0582 41.945 14.8612 41.945 12.4287C41.945 9.99625 43.3298 7.82716 45.8799 7.82716Z" fill="white"/>
<path d="M64.737 10.8901C64.737 8.74612 63.6545 8.04779 61.9693 8.04779C60.5686 8.08308 59.2631 8.76149 58.4328 9.88552V19.4723H55.4375V5.74756H58.4328V7.62205C59.6614 6.22815 61.4294 5.42348 63.2916 5.41064C66.2592 5.41064 67.7415 7.00334 67.7415 9.81507V19.4723H64.737V10.8901Z" fill="white"/>
<path fill-rule="evenodd" clip-rule="evenodd" d="M75.3213 19.7231C77.1572 19.7231 78.7643 19.0693 79.7935 17.892V19.3854H82.8069V10.1928C82.8069 6.4563 80.1118 5.16122 77.0428 5.16122C74.8829 5.11308 72.7906 5.91756 71.2169 7.40127L72.4531 9.4988C73.5242 8.37722 75.0056 7.74268 76.5545 7.74208C78.4769 7.74208 79.7935 8.72113 79.7935 10.3291V12.3926C78.7921 11.2307 77.1757 10.6111 75.3213 10.6111C73.0558 10.6111 70.5029 11.934 70.5029 15.1253C70.5029 18.2018 73.0558 19.7231 75.3213 19.7231ZM76.4988 12.6869C77.8155 12.6869 79.1074 13.1764 79.7935 14.1245V16.2282C79.1074 17.1794 77.8155 17.6658 76.4988 17.6658C74.8052 17.6658 73.5442 16.7085 73.5442 15.1872C73.5442 13.666 74.8052 12.6869 76.4988 12.6869Z" fill="white"/>
<path d="M86.9524 16.2482V8.42505H84.5654V5.84756H86.9524V2.146H90.089V5.84756H93.0132V8.42505H90.089V15.52C90.089 16.4446 90.5651 17.1184 91.4594 17.1184C91.9734 17.1318 92.4737 16.9611 92.8588 16.641L93.6051 18.8559C93.0389 19.3605 92.1156 19.7231 90.6519 19.7231C88.236 19.7171 86.9524 18.4903 86.9524 16.2482Z" fill="white"/>
<path d="M97.1254 22.5936C98.0726 22.5936 98.7041 22.3082 99.1065 21.397L99.7968 19.8323L94.1074 5.9126H97.3266L101.375 16.2151L105.424 5.9126H108.671L101.979 22.1426C101.032 24.4774 99.3634 25.2106 97.2121 25.2474C96.6414 25.2373 96.0731 25.1705 95.5158 25.048L95.977 22.3696C96.342 22.516 96.7318 22.592 97.1254 22.5936Z" fill="white"/>
<path fill-rule="evenodd" clip-rule="evenodd" d="M109.927 5.49677V24.494H112.93V17.334C113.954 18.7548 115.606 19.5932 117.363 19.5836C120.94 19.5836 123.486 16.8951 123.486 12.3652C123.486 7.83537 120.94 5.15918 117.363 5.15918C115.616 5.15771 113.972 5.97957 112.93 7.37501V5.49677H109.927ZM112.93 9.64915C113.757 8.51504 115.071 7.83323 116.478 7.80774V7.8016C118.852 7.8016 120.369 9.67064 120.369 12.3468C120.369 15.023 118.852 16.9319 116.478 16.9319C115.074 16.8938 113.765 16.2148 112.93 15.0905V9.64915Z" fill="white"/>
<path fill-rule="evenodd" clip-rule="evenodd" d="M139.306 12.7169C139.306 8.34465 136.694 5.15918 132.624 5.15918C128.609 5.15918 125.746 8.40352 125.746 12.4225C125.746 16.8196 128.778 19.7231 132.848 19.7231C135.009 19.7231 137.003 19.0414 138.352 17.7182L137.003 15.7351C136.05 16.7111 134.476 17.2565 133.157 17.2565C130.603 17.2565 129.057 15.5336 128.833 13.4358H139.306V12.7169ZM132.624 7.63814C135.29 7.63814 136.385 9.66779 136.443 11.307H128.805C128.945 9.60892 130.097 7.63814 132.624 7.63814Z" fill="white"/>
<path fill-rule="evenodd" clip-rule="evenodd" d="M0.948242 6.66597L10.9861 0.890625L21.0364 6.66597V18.2197L10.9861 23.992L0.948242 18.2197V6.66597ZM10.9861 20.6808L18.1437 16.5626V8.3231L10.9861 4.2049L3.82857 8.3231V16.5626L10.9861 20.6808Z" fill="url(#paint0_linear_201_2923)"/>
<defs>
<linearGradient id="paint0_linear_201_2923" x1="-12.3472" y1="14.186" x2="13.303" y2="29.1937" gradientUnits="userSpaceOnUse">
<stop stop-color="#8002EF"/>
<stop offset="1" stop-color="#4BA9EA"/>
</linearGradient>
</defs>
</svg>
