<?xml version="1.0" encoding="UTF-8"?>
<svg width="172px" height="172px" viewBox="0 0 172 172" version="1.1" xmlns="http://www.w3.org/2000/svg" xmlns:xlink="http://www.w3.org/1999/xlink">
    <title>Plaid Villain</title>
    <g id="Logo-+-Name-Lockup" stroke="none" stroke-width="1" fill="none" fill-rule="evenodd">
        <g id="Group-42">
            <path d="M0,86 C0,133.496157 38.5038427,172 86,172 C133.496157,172 172,133.496157 172,86 C172,38.5038427 133.496157,0 86,0 C38.5038427,0 0,38.5038427 0,86" id="Fill-9" fill="#E5379C"></path>
            <polygon id="Fill-13" fill="#14203E" points="124.631876 115.452101 162.337562 46.8656517 98.9246404 46.8656517 85.5173371 67.1577865 73.8010449 46.8656517 9.66340449 46.8656517 47.3681236 115.452101 47.3681236 138.663404 124.722708 138.663404"></polygon>
            <path d="M117.88764,115.494135 C117.88764,97.8824944 103.61164,83.6064944 86,83.6064944 C68.3883596,83.6064944 54.1123596,97.8824944 54.1123596,115.494135 L54.1123596,138.662921 L117.88764,138.662921 L117.88764,115.494135 Z" id="Fill-15" fill="#FDBD27"></path>
            <path d="M68.6067416,46.8651685 C68.6067416,58.0722247 59.5226292,67.1573034 48.3146067,67.1573034 C37.1075506,67.1573034 28.0224719,58.0722247 28.0224719,46.8651685 L68.6067416,46.8651685 Z" id="Fill-17" fill="#FC9322"></path>
            <path d="M143.977528,46.8651685 C143.977528,58.0722247 134.893416,67.1573034 123.685393,67.1573034 C112.478337,67.1573034 103.393258,58.0722247 103.393258,46.8651685 L143.977528,46.8651685 Z" id="Fill-19" fill="#FC9322"></path>
            <path d="M39.5991348,65.1690607 L48.3150899,46.8655551 L28.0229551,46.8655551 C28.0229551,54.9476225 32.7597191,61.9058921 39.5991348,65.1690607" id="Fill-21" fill="#FFFFFF"></path>
            <path d="M114.969921,65.1690607 L123.685876,46.8655551 L103.393742,46.8655551 C103.393742,54.9476225 108.130506,61.9058921 114.969921,65.1690607" id="Fill-23" fill="#FFFFFF"></path>
            <polygon id="Fill-37" fill="#14203E" points="84.3675461 138.662825 87.6326472 138.662825 87.6326472 88.955791 84.3675461 88.955791"></polygon>
            <polygon id="Fill-39" fill="#14203E" points="67.7908045 138.662825 71.0559056 138.662825 71.0559056 88.955791 67.7908045 88.955791"></polygon>
            <polygon id="Fill-40" fill="#14203E" points="100.944288 138.662825 104.209389 138.662825 104.209389 88.955791 100.944288 88.955791"></polygon>
            <path d="M86,89.4042472 C100.386157,89.4042472 112.089888,101.107978 112.089888,115.494135 L112.089888,138.662921 L117.88764,138.662921 L117.88764,115.494135 C117.88764,97.8824944 103.61164,83.6064944 86,83.6064944 C68.3883596,83.6064944 54.1123596,97.8824944 54.1123596,115.494135 L54.1123596,138.662921 L59.9101124,138.662921 L59.9101124,115.494135 C59.9101124,101.107978 71.6138427,89.4042472 86,89.4042472" id="Fill-41" fill="#FC9322"></path>
        </g>
    </g>
</svg>