<svg width="288" height="40" viewBox="0 0 288 40" fill="none" xmlns="http://www.w3.org/2000/svg">
<path d="M93.41 5V10.53H90V14.38H93.38V26.07C93.38 29.42 95.2 31.26 98.63 31.26C100.141 31.3772 101.64 30.9121 102.82 29.96L101.76 26.65C101.209 27.1335 100.493 27.3876 99.76 27.36C98.49 27.36 97.82 26.36 97.82 24.98V14.38H102V10.53H97.86V5H93.41ZM150.61 20.61C150.545 22.0242 150.775 23.4365 151.286 24.7569C151.796 26.0772 152.577 27.2766 153.577 28.2786C154.577 29.2806 155.775 30.0632 157.094 30.5766C158.414 31.0899 159.826 31.3226 161.24 31.26C164.256 31.3651 167.199 30.3174 169.47 28.33L167.47 25.43C165.892 26.859 163.839 27.6502 161.71 27.65C160.12 27.7422 158.556 27.2128 157.349 26.1735C156.141 25.1342 155.385 23.6664 155.24 22.08H170.9V21C170.9 14.63 166.99 10 160.9 10C154.81 10 150.61 14.75 150.61 20.61ZM160.91 13.61C161.645 13.5664 162.381 13.6734 163.073 13.9246C163.764 14.1757 164.398 14.5657 164.933 15.0704C165.469 15.5752 165.896 16.1842 166.188 16.8599C166.479 17.5357 166.63 18.264 166.63 19H155.19C155.247 17.5349 155.88 16.1515 156.951 15.1499C158.022 14.1483 159.444 13.6094 160.91 13.65V13.61ZM69.57 13.24L71.39 16.3C72.1695 15.4956 73.1017 14.8549 74.132 14.4153C75.1623 13.9758 76.2699 13.7462 77.39 13.74C80.23 13.74 82.18 15.17 82.18 17.51V20.51C81.3289 19.6478 80.3032 18.9777 79.1717 18.5448C78.0403 18.1119 76.8292 17.9261 75.62 18C72.28 18 68.51 19.93 68.51 24.58C68.51 29.07 72.28 31.29 75.62 31.29C76.8487 31.3363 78.0732 31.1214 79.2126 30.6594C80.3521 30.1974 81.3805 29.4989 82.23 28.61V30.79H86.67V17.34C86.67 11.9 82.67 10.01 78.16 10.01C74.9806 9.94271 71.8998 11.1155 69.57 13.28V13.24ZM73.09 24.6C73.09 22.37 74.97 20.94 77.49 20.94C78.4111 20.8884 79.3318 21.047 80.1825 21.4039C81.0332 21.7608 81.7915 22.3066 82.4 23V26.08C81.7954 26.7806 81.0388 27.334 80.1879 27.6979C79.337 28.0618 78.4143 28.2267 77.49 28.18C75 28.22 73.09 26.79 73.09 24.6ZM20.45 20.6C20.45 26.43 24.45 31.25 30.95 31.25C37.45 31.25 41.51 26.43 41.51 20.6C41.51 14.77 37.52 10 31 10C24.48 10 20.45 14.83 20.45 20.61V20.6ZM25 20.54C25 16.96 27.11 13.8 30.86 13.8C34.61 13.8 36.75 16.96 36.75 20.54C36.75 24.12 34.65 27.31 30.86 27.31C27.07 27.31 25 24.16 25 20.54ZM0.63 16.17C0.63 20.7 4.82 21.62 8.33 22.37C10.82 22.92 12.97 23.55 12.97 25.31C12.97 26.82 11.62 27.78 8.97 27.78C6.37558 27.7179 3.89468 26.7034 2 24.93L0 28.12C2.40345 30.2545 5.53779 31.3792 8.75 31.26C14.24 31.26 17.24 28.53 17.24 24.97C17.24 20.19 12.89 19.19 9.34 18.43C6.93 17.89 4.9 17.34 4.9 15.79C4.9 14.24 6.38 13.53 8.71 13.53C9.82196 13.5119 10.9262 13.7177 11.957 14.1351C12.9878 14.5526 13.924 15.1732 14.71 15.96L16.57 12.86C14.3785 10.9599 11.5599 9.94081 8.66 10C3.51 10 0.63 12.86 0.63 16.17ZM131.72 13.42V10.66H127.26V38.54H131.72V28.05C132.479 29.082 133.472 29.9193 134.618 30.4929C135.764 31.0666 137.029 31.3603 138.31 31.35C143.62 31.35 147.4 27.35 147.4 20.74C147.4 14.13 143.62 10.16 138.31 10.16C137.034 10.1553 135.774 10.4474 134.631 11.0132C133.487 11.579 132.491 12.4029 131.72 13.42V13.42ZM131.84 24.58V16.58C132.441 15.7484 133.228 15.068 134.137 14.5924C135.046 14.1169 136.054 13.8593 137.08 13.84C140.59 13.84 142.83 16.66 142.83 20.58C142.83 24.5 140.59 27.35 137.08 27.35C136.053 27.3174 135.048 27.0509 134.14 26.5709C133.232 26.0909 132.445 25.41 131.84 24.58V24.58ZM50.35 13.41V10.66H45.93V30.8H50.35V16.8C50.9494 15.9642 51.7326 15.2771 52.6393 14.7916C53.546 14.3062 54.5521 14.0354 55.58 14C58.06 14 59.66 15 59.66 18.17V30.8H64.09V16.62C64.09 12.5 61.9 10.16 57.52 10.16C56.164 10.1699 54.8252 10.4642 53.5901 11.0241C52.355 11.5839 51.2512 12.3967 50.35 13.41V13.41ZM119.6 10.62L113.66 25.75L107.72 10.62H103L111.34 31.06L110.34 33.36C110.118 33.9333 109.711 34.4164 109.185 34.7332C108.658 35.05 108.04 35.1826 107.43 35.11C106.854 35.1059 106.284 34.9939 105.75 34.78L105.07 38.71C105.889 38.8848 106.723 38.9819 107.56 39C110.72 39 113.16 37.87 114.56 34.44L124.38 10.62H119.6Z" fill="#121212"/>
<path d="M186.92 31.08C188.463 31.2007 189.993 30.7206 191.19 29.74L190.11 26.33C189.56 26.8181 188.845 27.079 188.11 27.06C186.82 27.06 186.11 26.06 186.11 24.6V13.67H190.34V9.67H186.1V4H181.57V9.7H178.12V13.7H181.57V25.7C181.57 29.18 183.43 31.08 186.92 31.08ZM200.42 31.08C201.672 31.1268 202.92 30.9046 204.079 30.4285C205.238 29.9524 206.282 29.2335 207.14 28.32V30.56H211.67V16.74C211.67 11.13 207.67 9.18 203 9.18C199.754 9.11047 196.611 10.321 194.25 12.55L196.1 15.7C196.897 14.867 197.855 14.2044 198.915 13.7523C199.976 13.3003 201.117 13.0681 202.27 13.07C205.16 13.07 207.14 14.54 207.14 16.96V20.07C206.282 19.162 205.236 18.4518 204.076 17.989C202.915 17.5262 201.668 17.3218 200.42 17.39C197.01 17.39 193.17 19.39 193.17 24.17C193.17 28.79 197 31.08 200.42 31.08ZM202.18 28C199.64 28 197.74 26.53 197.74 24.29C197.74 22.05 199.64 20.53 202.18 20.53C203.124 20.4757 204.068 20.6427 204.936 21.0177C205.804 21.3927 206.572 21.9654 207.18 22.69V25.84C206.572 26.5646 205.804 27.1373 204.936 27.5123C204.068 27.8873 203.124 28.0543 202.18 28ZM222.06 30.59V16.35C222.699 15.5306 223.509 14.8596 224.432 14.3831C225.356 13.9066 226.372 13.6361 227.41 13.59C227.887 13.5805 228.363 13.6241 228.83 13.72V9.23C227.509 9.27976 226.216 9.62332 225.045 10.2357C223.874 10.8481 222.854 11.7138 222.06 12.77V9.7H217.53V30.56L222.06 30.59ZM238.75 31.11C240.29 31.2171 241.812 30.7265 243 29.74L241.92 26.33C241.368 26.8147 240.654 27.0751 239.92 27.06C238.63 27.06 237.92 26.06 237.92 24.6V13.67H242.14V9.67H237.92V4H233.4V9.7H230V13.7H233.45V25.7C233.4 29.18 235.26 31.08 238.75 31.08V31.11ZM252.24 31.11C253.501 31.1574 254.757 30.9328 255.924 30.4514C257.09 29.97 258.14 29.243 259 28.32V30.56H263.53V16.74C263.53 11.13 259.48 9.18 254.86 9.18C251.614 9.11047 248.471 10.321 246.11 12.55L247.96 15.7C248.757 14.867 249.715 14.2044 250.775 13.7523C251.836 13.3003 252.977 13.0681 254.13 13.07C257 13.07 259 14.54 259 17V20.11C258.141 19.2006 257.093 18.4897 255.931 18.0268C254.769 17.564 253.519 17.3603 252.27 17.43C248.87 17.43 245.03 19.43 245.03 24.21C245 28.79 248.84 31.08 252.24 31.08V31.11ZM254 28C251.46 28 249.56 26.53 249.56 24.29C249.56 22.05 251.46 20.53 254 20.53C254.944 20.4757 255.888 20.6427 256.756 21.0177C257.624 21.3927 258.392 21.9654 259 22.69V25.84C258.392 26.5646 257.624 27.1373 256.756 27.5123C255.888 27.8873 254.944 28.0543 254 28V28ZM273.88 30.59V16C274.497 15.1531 275.3 14.4593 276.228 13.9721C277.155 13.4849 278.183 13.2173 279.23 13.19C281.77 13.19 283.41 14.27 283.41 17.51V30.51H288V15.88C288 11.6 285.75 9.18 281.27 9.18C279.88 9.19252 278.508 9.49929 277.244 10.0801C275.981 10.661 274.855 11.5027 273.94 12.55V9.7H269.41V30.56L273.88 30.59Z" fill="#E5379C"/>
</svg>
