<?xml version="1.0" encoding="UTF-8"?>
<svg width="957px" height="113px" viewBox="0 0 957 113" version="1.1" xmlns="http://www.w3.org/2000/svg" xmlns:xlink="http://www.w3.org/1999/xlink">
    <title>Sonatype Tartan</title>
    <defs>
        <path d="M310.462254,0 L310.462254,18.3735968 L299.214294,18.3735968 L299.214294,31.1788778 L310.462254,31.1788778 L310.462254,70.01334 C310.462254,81.1490004 316.507728,87.2728851 327.896348,87.2728851 L327.896348,87.2728851 C334.784808,87.2728851 339.144308,85.463401 341.814905,82.9575132 L341.814905,82.9575132 L338.300345,71.9617163 C337.17506,73.2146602 334.503487,74.3277406 331.691253,74.3277406 L331.691253,74.3277406 C327.474366,74.3277406 325.224774,70.9875281 325.224774,66.3934005 L325.224774,66.3934005 L325.224774,31.1788778 L339.002671,31.1788778 L339.002671,18.3735968 L325.224774,18.3735968 L325.224774,0 L310.462254,0 Z M500.551313,51.890332 C500.551313,73.2030049 515.632273,87.2728851 535.882508,87.2728851 L535.882508,87.2728851 C546.635225,87.2728851 556.54984,83.9297588 563.252706,77.5212907 L563.252706,77.5212907 L556.54984,67.910531 C551.802547,72.6464647 543.982211,75.2922161 537.418052,75.2922161 L537.418052,75.2922161 C524.710739,75.2922161 517.02911,66.9353716 515.91164,56.7661292 L515.91164,56.7661292 L568,56.7661292 L568,53.2841106 C568,32.1103299 555.014296,16.6476423 534.765038,16.6476423 L534.765038,16.6476423 C514.79417,16.6476423 500.551313,32.3890856 500.551313,51.890332 L500.551313,51.890332 Z M534.783597,28.7555483 C548.068205,28.7555483 553.520755,38.5479363 553.801099,46.4104021 L553.801099,46.4104021 L515.765119,46.4104021 C516.464514,38.2720943 522.197408,28.7555483 534.783597,28.7555483 L534.783597,28.7555483 Z M231.224455,27.5123171 L237.272858,37.6815595 C243.181578,31.9704664 249.793601,29.1848516 257.390247,29.1848516 L257.390247,29.1848516 C266.815481,29.1848516 273.286843,33.9207853 273.286843,41.7210895 L273.286843,41.7210895 L273.286843,51.7514397 C268.362747,46.0393753 260.484779,43.113897 251.340867,43.113897 L251.340867,43.113897 C240.227707,43.113897 227.706964,49.5223651 227.706964,64.9850527 L227.706964,64.9850527 C227.706964,79.8902288 240.227707,87.2728851 251.340867,87.2728851 L251.340867,87.2728851 C260.344119,87.2728851 268.222087,84.0696223 273.286843,78.3565866 L273.286843,78.3565866 L273.286843,85.601322 L288.058155,85.601322 L288.058155,41.0246858 C288.058155,22.9162469 274.834109,16.6476423 259.781477,16.6476423 L259.781477,16.6476423 C248.949638,16.6476423 239.102422,20.1296608 231.224455,27.5123171 L231.224455,27.5123171 Z M242.921747,65.1462842 C242.921747,57.7276908 249.166489,52.9694178 257.537746,52.9694178 L257.537746,52.9694178 C264.065763,52.9694178 270.451166,55.3490399 273.8573,59.9674494 L273.8573,59.9674494 L273.8573,70.1842843 C270.451166,74.8046363 264.065763,77.1842585 257.537746,77.1842585 L257.537746,77.1842585 C249.166489,77.1842585 242.921747,72.4240429 242.921747,65.1462842 L242.921747,65.1462842 Z M67.9576051,51.890332 C67.9576051,71.252686 81.3350095,87.2728851 102.879517,87.2728851 L102.879517,87.2728851 C124.707299,87.2728851 137.943066,71.252686 137.943066,51.890332 L137.943066,51.890332 C137.943066,32.6658988 124.707299,16.6476423 102.879517,16.6476423 L102.879517,16.6476423 C81.3350095,16.6476423 67.9576051,32.6658988 67.9576051,51.890332 L67.9576051,51.890332 Z M83.1714111,51.6378006 C83.1714111,39.7494026 90.1692735,29.2586684 102.626523,29.2586684 L102.626523,29.2586684 C115.22248,29.2586684 122.22132,39.7494026 122.22132,51.6378006 L122.22132,51.6378006 C122.22132,63.6670334 115.22248,74.1567963 102.626523,74.1567963 L102.626523,74.1567963 C90.1692735,74.1567963 83.1714111,63.6670334 83.1714111,51.6378006 L83.1714111,51.6378006 Z M2.10697782,37.1240481 C2.10697782,52.1690877 16.0118593,55.2334583 27.6700792,57.7412886 L27.6700792,57.7412886 C35.9573299,59.5527153 43.1212499,61.6419264 43.1212499,67.4919118 L43.1212499,67.4919118 C43.1212499,72.5075725 38.6259732,75.7108353 29.777057,75.7108353 L29.777057,75.7108353 C20.9281409,75.7108353 11.5175594,71.1147651 6.74193831,66.2379966 L6.74193831,66.2379966 L5.68434189e-14,76.8258582 C7.02325941,83.6510031 17.5581485,87.2728851 29.0757079,87.2728851 L29.0757079,87.2728851 C47.3352056,87.2728851 57.3064757,78.2186657 57.3064757,66.3778601 L57.3064757,66.3778601 C57.3064757,50.4975245 42.8399288,47.1543982 31.0410484,44.6475392 L31.0410484,44.6475392 C23.0360955,42.8351412 16.2931804,41.0246858 16.2931804,35.8711042 L16.2931804,35.8711042 C16.2931804,31.1351704 21.209462,28.3485843 28.9350473,28.3485843 L28.9350473,28.3485843 C37.3619818,28.3485843 44.9469066,31.8306029 49.0202017,36.4286156 L49.0202017,36.4286156 L55.2004746,26.1195097 C49.0202017,20.6871723 40.3119461,16.6476423 28.7943868,16.6476423 L28.7943868,16.6476423 C11.6582199,16.6476423 2.10697782,26.1195097 2.10697782,37.1240481 L2.10697782,37.1240481 Z M437.787403,27.9882416 L437.787403,18.8194117 L422.957483,18.8194117 L422.957483,111.487726 L437.787403,111.487726 L437.787403,76.6150917 C443.294654,83.8394303 451.063219,87.5904918 459.677701,87.5904918 L459.677701,87.5904918 C477.3306,87.5904918 489.900183,74.392816 489.900183,52.301181 L489.900183,52.301181 C489.900183,30.2114885 477.3306,17.1517337 459.677701,17.1517337 L459.677701,17.1517337 C450.780921,17.1517337 442.871696,21.3194719 437.787403,27.9882416 L437.787403,27.9882416 Z M438.171289,65.0646972 L438.171289,38.3497963 C441.402574,33.3156814 448.704225,29.2586684 455.585847,29.2586684 L455.585847,29.2586684 C467.244066,29.2586684 474.686377,38.6295233 474.686377,51.6378006 L474.686377,51.6378006 C474.686377,64.7859414 467.244066,74.1567963 455.585847,74.1567963 L455.585847,74.1567963 C448.704225,74.1567963 441.402574,69.9608912 438.171289,65.0646972 L438.171289,65.0646972 Z M167.352843,27.9629884 L167.352843,18.8145554 L152.649908,18.8145554 L152.649908,85.7596397 L167.352843,85.7596397 L167.352843,39.0510564 C170.713067,34.4773255 177.154148,30.0424868 184.71563,30.0424868 L184.71563,30.0424868 C192.976507,30.0424868 198.298164,33.5070224 198.298164,43.9016005 L198.298164,43.9016005 L198.298164,85.7596397 L213.000122,85.7596397 L213.000122,38.6353509 C213.000122,24.913187 205.719962,17.1517337 191.156711,17.1517337 L191.156711,17.1517337 C180.515349,17.1517337 171.833468,22.6957677 167.352843,27.9629884 L167.352843,27.9629884 Z M397.497923,18.6659504 L377.751722,68.9595073 L358.006497,18.6659504 L342.321869,18.6659504 L370.04958,86.6036771 L366.688379,94.2446924 C364.728899,98.6902151 361.648043,100.080109 357.026757,100.080109 L357.026757,100.080109 C355.346645,100.080109 352.965184,99.663432 351.424756,98.9679995 L351.424756,98.9679995 L349.183955,112.028726 C351.285072,112.584295 355.346645,113 357.446785,113 L357.446785,113 C367.94944,112.862079 376.07161,109.248938 380.692895,97.8568617 L380.692895,97.8568617 L413.322235,18.6659504 L397.497923,18.6659504 Z" id="path-1"></path>
    </defs>
    <g id="Logo-+-Name-Lockup" stroke="none" stroke-width="1" fill="none" fill-rule="evenodd">
        <g id="Group" transform="translate(0.000000, 0.000000)">
            <g id="Group-9-Copy" transform="translate(-0.000000, 0.000000)">
                <mask id="mask-2" fill="white">
                    <use xlink:href="#path-1"></use>
                </mask>
                <g id="Clip-8"></g>
                <polygon id="Fill-7" fill="#121212" mask="url(#mask-2)" points="-4.88404688 117.857343 572.885024 117.857343 572.885024 -4.85637173 -4.88404688 -4.85637173"></polygon>
            </g>
            <path d="M621.234393,90 C628.25638,90 632.698861,88.1339713 635.421673,85.5502392 L631.839026,74.2105263 C630.69258,75.5023923 627.969768,76.6507177 625.103651,76.6507177 C620.804476,76.6507177 618.511582,73.2057416 618.511582,68.4688995 L618.511582,32.15311 L632.555556,32.15311 L632.555556,18.9473684 L618.511582,18.9473684 L618.511582,0 L603.464468,0 L603.464468,18.9473684 L592,18.9473684 L592,32.15311 L603.464468,32.15311 L603.464468,72.2009569 C603.464468,83.6842105 609.62662,90 621.234393,90 Z M666.089124,90 C675.260699,90 683.285826,86.6985646 688.444837,80.8133971 L688.444837,88.277512 L703.491951,88.277512 L703.491951,42.3444976 C703.491951,23.6842105 690.021201,17.2248804 674.687475,17.2248804 C663.652925,17.2248804 653.621516,20.8133971 645.596388,28.4210526 L651.758539,38.8995215 C657.777385,33.0143541 664.51276,30.1435407 672.251276,30.1435407 C681.852768,30.1435407 688.444837,35.0239234 688.444837,43.062201 L688.444837,53.3971292 C683.429132,47.5119617 675.404005,44.4976077 666.089124,44.4976077 C654.767962,44.4976077 642.013742,51.1004785 642.013742,67.0334928 C642.013742,82.3923445 654.767962,90 666.089124,90 Z M671.964664,79.6650718 C663.509619,79.6650718 657.204162,74.784689 657.204162,67.3205742 C657.204162,59.7129187 663.509619,54.8325359 671.964664,54.8325359 C678.556733,54.8325359 685.005497,57.2727273 688.444837,62.0095694 L688.444837,72.4880383 C685.005497,77.2248804 678.556733,79.6650718 671.964664,79.6650718 Z M738.028661,88.277512 L738.028661,41.0526316 C741.038084,36.1722488 749.493129,31.8660287 755.798587,31.8660287 C757.661563,31.8660287 759.237927,32.0095694 760.52768,32.2966507 L760.52768,17.3684211 C751.499411,17.3684211 743.187672,22.5358852 738.028661,29.138756 L738.028661,18.9473684 L722.981547,18.9473684 L722.981547,88.277512 L738.028661,88.277512 Z M793.488025,90 C800.510012,90 804.952493,88.1339713 807.675304,85.5502392 L804.092658,74.2105263 C802.946211,75.5023923 800.2234,76.6507177 797.357283,76.6507177 C793.058108,76.6507177 790.765214,73.2057416 790.765214,68.4688995 L790.765214,32.15311 L804.809187,32.15311 L804.809187,18.9473684 L790.765214,18.9473684 L790.765214,0 L775.7181,0 L775.7181,18.9473684 L764.253632,18.9473684 L764.253632,32.15311 L775.7181,32.15311 L775.7181,72.2009569 C775.7181,83.6842105 781.880251,90 793.488025,90 Z M838.342756,90 C847.514331,90 855.539458,86.6985646 860.698469,80.8133971 L860.698469,88.277512 L875.745583,88.277512 L875.745583,42.3444976 C875.745583,23.6842105 862.274833,17.2248804 846.941107,17.2248804 C835.906557,17.2248804 825.875147,20.8133971 817.85002,28.4210526 L824.012171,38.8995215 C830.031017,33.0143541 836.766392,30.1435407 844.504908,30.1435407 C854.1064,30.1435407 860.698469,35.0239234 860.698469,43.062201 L860.698469,53.3971292 C855.682764,47.5119617 847.657636,44.4976077 838.342756,44.4976077 C827.021594,44.4976077 814.267373,51.1004785 814.267373,67.0334928 C814.267373,82.3923445 827.021594,90 838.342756,90 Z M844.218296,79.6650718 C835.763251,79.6650718 829.457793,74.784689 829.457793,67.3205742 C829.457793,59.7129187 835.763251,54.8325359 844.218296,54.8325359 C850.810365,54.8325359 857.259128,57.2727273 860.698469,62.0095694 L860.698469,72.4880383 C857.259128,77.2248804 850.810365,79.6650718 844.218296,79.6650718 Z M910.282293,88.277512 L910.282293,39.9043062 C913.721633,35.1674641 920.313702,30.5741627 928.052218,30.5741627 C936.507263,30.5741627 941.952886,34.1626794 941.952886,44.9282297 L941.952886,88.277512 L957,88.277512 L957,39.4736842 C957,25.2631579 949.548096,17.2248804 934.644287,17.2248804 C923.753043,17.2248804 914.86808,22.9665072 910.282293,28.4210526 L910.282293,18.9473684 L895.235179,18.9473684 L895.235179,88.277512 L910.282293,88.277512 Z" id="tartan-copy" fill="#E5379C" fill-rule="nonzero"></path>
        </g>
    </g>
</svg>