<?xml version="1.0" encoding="utf-8"?>
<!-- Generator: Adobe Illustrator 27.3.1, SVG Export Plug-In . SVG Version: 6.00 Build 0)  -->
<svg version="1.1" id="Layer_1" xmlns="http://www.w3.org/2000/svg" xmlns:xlink="http://www.w3.org/1999/xlink" x="0px" y="0px"
	 viewBox="0 0 288 40" style="enable-background:new 0 0 288 40;" xml:space="preserve">
<style type="text/css">
	.st0{fill:#FFFFFF;}
	.st1{fill:#E5379C;}
</style>
<path class="st0" d="M93.4,5v5.5H90v3.9h3.4v11.7c0,3.4,1.8,5.2,5.2,5.2c1.5,0.1,3-0.3,4.2-1.3l-1.1-3.3c-0.6,0.5-1.3,0.7-2,0.7
	c-1.3,0-1.9-1-1.9-2.4V14.4h4.2v-3.9h-4.1V5H93.4z M150.6,20.6c-0.1,1.4,0.2,2.8,0.7,4.1c0.5,1.3,1.3,2.5,2.3,3.5
	c1,1,2.2,1.8,3.5,2.3c1.3,0.5,2.7,0.7,4.1,0.7c3,0.1,6-0.9,8.2-2.9l-2-2.9c-1.6,1.4-3.6,2.2-5.8,2.2c-1.6,0.1-3.2-0.4-4.4-1.5
	c-1.2-1-2-2.5-2.1-4.1h15.7V21c0-6.4-3.9-11-10-11C154.8,10,150.6,14.8,150.6,20.6z M160.9,13.6c0.7,0,1.5,0.1,2.2,0.3
	c0.7,0.3,1.3,0.6,1.9,1.1c0.5,0.5,1,1.1,1.3,1.8c0.3,0.7,0.4,1.4,0.4,2.1h-11.4c0.1-1.5,0.7-2.8,1.8-3.9S159.4,13.6,160.9,13.6
	L160.9,13.6z M69.6,13.2l1.8,3.1c0.8-0.8,1.7-1.4,2.7-1.9c1-0.4,2.1-0.7,3.3-0.7c2.8,0,4.8,1.4,4.8,3.8v3c-0.9-0.9-1.9-1.5-3-2
	c-1.1-0.4-2.3-0.6-3.6-0.5c-3.3,0-7.1,1.9-7.1,6.6c0,4.5,3.8,6.7,7.1,6.7c1.2,0,2.5-0.2,3.6-0.6c1.1-0.5,2.2-1.2,3-2v2.2h4.4V17.3
	c0-5.4-4-7.3-8.5-7.3C75,9.9,71.9,11.1,69.6,13.2L69.6,13.2z M73.1,24.6c0-2.2,1.9-3.7,4.4-3.7c0.9-0.1,1.8,0.1,2.7,0.5
	s1.6,0.9,2.2,1.6v3.1c-0.6,0.7-1.4,1.3-2.2,1.6c-0.9,0.4-1.8,0.5-2.7,0.5C75,28.2,73.1,26.8,73.1,24.6z M20.5,20.6
	c0,5.8,4,10.6,10.5,10.6s10.6-4.8,10.6-10.6S37.5,10,31,10S20.5,14.8,20.5,20.6L20.5,20.6z M25,20.5c0-3.6,2.1-6.7,5.9-6.7
	s5.9,3.2,5.9,6.7s-2.1,6.8-5.9,6.8S25,24.2,25,20.5z M0.6,16.2c0,4.5,4.2,5.5,7.7,6.2c2.5,0.5,4.6,1.2,4.6,2.9c0,1.5-1.4,2.5-4,2.5
	c-2.6-0.1-5.1-1.1-7-2.9l-2,3.2c2.4,2.1,5.5,3.3,8.8,3.1c5.5,0,8.5-2.7,8.5-6.3c0-4.8-4.3-5.8-7.9-6.5c-2.4-0.5-4.4-1.1-4.4-2.6
	s1.5-2.3,3.8-2.3c1.1,0,2.2,0.2,3.2,0.6c1,0.4,2,1,2.8,1.8l1.9-3.1c-2.2-1.9-5-2.9-7.9-2.9C3.5,10,0.6,12.9,0.6,16.2z M131.7,13.4
	v-2.8h-4.5v27.9h4.5V28c0.8,1,1.8,1.9,2.9,2.4c1.1,0.6,2.4,0.9,3.7,0.9c5.3,0,9.1-4,9.1-10.6s-3.8-10.6-9.1-10.6
	c-1.3,0-2.5,0.3-3.7,0.9C133.5,11.6,132.5,12.4,131.7,13.4L131.7,13.4z M131.8,24.6v-8c0.6-0.8,1.4-1.5,2.3-2
	c0.9-0.5,1.9-0.7,2.9-0.8c3.5,0,5.8,2.8,5.8,6.7s-2.2,6.8-5.8,6.8c-1,0-2-0.3-2.9-0.8S132.4,25.4,131.8,24.6L131.8,24.6z M50.3,13.4
	v-2.8h-4.4v20.1h4.4v-14c0.6-0.8,1.4-1.5,2.3-2c0.9-0.5,1.9-0.8,2.9-0.8c2.5,0,4.1,1,4.1,4.2v12.6h4.4V16.6c0-4.1-2.2-6.5-6.6-6.5
	c-1.4,0-2.7,0.3-3.9,0.9C52.4,11.6,51.3,12.4,50.3,13.4L50.3,13.4z M119.6,10.6l-5.9,15.1l-5.9-15.1H103l8.3,20.4l-1,2.3
	c-0.2,0.6-0.6,1.1-1.2,1.4c-0.5,0.3-1.1,0.4-1.8,0.4c-0.6,0-1.1-0.1-1.7-0.3l-0.7,3.9c0.8,0.2,1.7,0.3,2.5,0.3c3.2,0,5.6-1.1,7-4.6
	l9.8-23.8H119.6z"/>
<path class="st1" d="M186.9,31.1c1.5,0.1,3.1-0.4,4.3-1.3l-1.1-3.4c-0.6,0.5-1.3,0.7-2,0.7c-1.3,0-2-1-2-2.5V13.7h4.2v-4h-4.2V4
	h-4.5v5.7h-3.5v4h3.5v12C181.6,29.2,183.4,31.1,186.9,31.1z M200.4,31.1c1.3,0,2.5-0.2,3.7-0.7c1.2-0.5,2.2-1.2,3.1-2.1v2.2h4.5
	V16.7c0-5.6-4-7.6-8.7-7.6c-3.2-0.1-6.4,1.1-8.8,3.4l1.9,3.1c0.8-0.8,1.8-1.5,2.8-1.9c1.1-0.5,2.2-0.7,3.4-0.7
	c2.9,0,4.9,1.5,4.9,3.9v3.1c-0.9-0.9-1.9-1.6-3.1-2.1c-1.2-0.5-2.4-0.7-3.7-0.6c-3.4,0-7.2,2-7.2,6.8
	C193.2,28.8,197,31.1,200.4,31.1z M202.2,28c-2.5,0-4.4-1.5-4.4-3.7s1.9-3.8,4.4-3.8c0.9-0.1,1.9,0.1,2.8,0.5
	c0.9,0.4,1.6,0.9,2.2,1.7v3.1c-0.6,0.7-1.4,1.3-2.2,1.7C204.1,27.9,203.1,28.1,202.2,28z M222.1,30.6V16.4c0.6-0.8,1.4-1.5,2.4-2
	c0.9-0.5,1.9-0.7,3-0.8c0.5,0,1,0,1.4,0.1V9.2c-1.3,0-2.6,0.4-3.8,1c-1.2,0.6-2.2,1.5-3,2.5V9.7h-4.5v20.9L222.1,30.6z M238.8,31.1
	c1.5,0.1,3.1-0.4,4.2-1.4l-1.1-3.4c-0.6,0.5-1.3,0.7-2,0.7c-1.3,0-2-1-2-2.5V13.7h4.2v-4h-4.2V4h-4.5v5.7H230v4h3.4v12
	C233.4,29.2,235.3,31.1,238.8,31.1L238.8,31.1z M252.2,31.1c1.3,0,2.5-0.2,3.7-0.7c1.2-0.5,2.2-1.2,3.1-2.1v2.2h4.5V16.7
	c0-5.6-4-7.6-8.7-7.6c-3.2-0.1-6.4,1.1-8.8,3.4l1.9,3.1c0.8-0.8,1.8-1.5,2.8-1.9c1.1-0.5,2.2-0.7,3.4-0.7c2.9,0,4.9,1.5,4.9,3.9v3.1
	c-0.9-0.9-1.9-1.6-3.1-2.1c-1.2-0.5-2.4-0.7-3.7-0.6c-3.4,0-7.2,2-7.2,6.8C245,28.8,248.8,31.1,252.2,31.1L252.2,31.1z M254,28
	c-2.5,0-4.4-1.5-4.4-3.7s1.9-3.8,4.4-3.8c0.9-0.1,1.9,0.1,2.8,0.5c0.9,0.4,1.6,0.9,2.2,1.7v3.1c-0.6,0.7-1.4,1.3-2.2,1.7
	C255.9,27.9,254.9,28.1,254,28L254,28z M273.9,30.6V16c0.6-0.8,1.4-1.5,2.3-2c0.9-0.5,2-0.8,3-0.8c2.5,0,4.2,1.1,4.2,4.3v13h4.6
	V15.9c0-4.3-2.2-6.7-6.7-6.7c-1.4,0-2.8,0.3-4,0.9c-1.3,0.6-2.4,1.4-3.3,2.5V9.7h-4.5v20.9L273.9,30.6z"/>
</svg>
