<?xml version="1.0" encoding="UTF-8"?>
<svg width="142px" height="34px" viewBox="0 0 142 34" version="1.1" xmlns="http://www.w3.org/2000/svg" xmlns:xlink="http://www.w3.org/1999/xlink">
    <title>NexusLifecycle_horiz_white 2</title>
    <g id="COMPONENT-TEMPLATE" stroke="none" stroke-width="1" fill="none" fill-rule="evenodd">
        <g id="NexusLifecycle_horiz_white-2" transform="translate(0.000000, -0.000000)" fill="#FFFFFF" fill-rule="nonzero">
            <g id="NexusLifecycle_horiz_white">
                <path d="M12.6927374,21.404186 C12.6293769,22.0663892 12.8926565,22.7180096 13.3987709,23.1516279 C13.8905945,23.5083011 14.4886628,23.6893624 15.0964246,23.6655814 L16.6830168,23.6655814 L16.6830168,21.1274419 L16.032514,21.1274419 C15.5644693,21.1274419 15.3264804,20.9139535 15.3264804,20.4948837 L15.3264804,10.5637209 L12.6927374,10.5637209 L12.6927374,21.404186 Z" id="Path"></path>
                <polygon id="Path" points="14.6759777 0 0 8.42883721 0 25.2944186 13.9858101 33.32 13.9858101 29.1846512 3.60156425 23.2227907 3.60156425 10.5004651 14.6759777 4.14325581 25.7503911 10.5004651 25.7503911 22.3451163 29.3519553 24.4167442 29.3519553 8.42883721"></polygon>
                <polygon id="Path" points="15.421676 29.2716279 15.421676 33.4069767 28.7728492 25.7372093 25.1712849 23.6655814"></polygon>
                <path d="M42.1398883,15.5451163 C42.1398883,14.0902326 41.3941899,13.615814 40.2597765,13.615814 C39.298896,13.6516481 38.406146,14.1198245 37.8322905,14.8888372 L37.8322905,21.1590698 L36.1901676,21.1590698 L36.1901676,12.3823256 L37.8322905,12.3823256 L37.8322905,13.615814 C38.6155726,12.7096045 39.7500362,12.1801959 40.9499441,12.1609302 C42.8141899,12.1609302 43.7820112,13.1413953 43.7820112,14.9995349 L43.7820112,21.1590698 L42.1398883,21.1590698 L42.1398883,15.5451163 Z" id="Path"></path>
                <path d="M49.1843575,12.1609171 C51.8339665,12.1609171 53.4760894,14.2167442 53.4760894,16.9051163 L53.4760894,17.3083721 L46.4792179,17.3083721 C46.5646835,18.8776237 47.8941479,20.0902573 49.4699441,20.0362791 C50.4454915,20.0370243 51.3824757,19.6566455 52.0798883,18.9767442 L52.8731844,20.044186 C51.9064395,20.9326565 50.6251845,21.4019541 49.3112849,21.3488372 C48.0760226,21.3925402 46.879042,20.9176192 46.0118427,20.0397313 C45.1446433,19.1618433 44.6868078,17.9615519 44.7498324,16.7311628 C44.7066963,15.5324769 45.1550504,14.3679484 45.9916452,13.5057517 C46.82824,12.6435551 47.9809627,12.1580098 49.1843575,12.1609171 Z M46.4871508,16.1144186 L51.8656983,16.1144186 C51.8703373,15.4099217 51.5872296,14.7338585 51.0814779,14.2416946 C50.5757261,13.7495307 49.8908557,13.4836221 49.1843575,13.5051163 C47.7146356,13.4958951 46.506424,14.6580178 46.463352,16.1223256 L46.4871508,16.1144186 Z" id="Shape"></path>
                <polygon id="Path" points="57.6646927 17.7432558 55.181676 21.1590698 53.3253631 21.1590698 56.6254749 16.652093 53.5236872 12.3823256 55.387933 12.3823256 57.6646927 15.5451163 59.9255866 12.3823256 61.7898324 12.3823256 58.7039106 16.652093 62.0198883 21.1590698 60.1318436 21.1590698"></polygon>
                <path d="M68.6677095,19.9651163 C67.8535114,20.8562493 66.7037127,21.3690989 65.4945251,21.3804651 C63.6223464,21.3804651 62.686257,20.4316279 62.686257,18.5813953 L62.686257,12.3823256 L64.3283799,12.3823256 L64.3283799,18.035814 C64.3283799,19.4906977 65.0582123,19.9255814 66.1926257,19.9255814 C67.1523407,19.9039593 68.0506471,19.4504632 68.6359777,18.692093 L68.6359777,12.3665116 L70.2781006,12.3665116 L70.2781006,21.1432558 L68.6677095,21.1432558 L68.6677095,19.9651163 Z" id="Path"></path>
                <path d="M72.1899441,18.8186047 C72.9767347,19.6012709 74.0375054,20.0491336 75.1489385,20.067907 C76.3864804,20.067907 77.0449162,19.5618605 77.0449162,18.8186047 C77.0449162,17.9409302 76.0453631,17.6562791 74.9109497,17.3953488 C73.4116201,17.0553488 71.6663687,16.652093 71.6663687,14.7623256 C71.6663687,13.3627907 72.8642458,12.1609302 75.0220112,12.1609302 C76.272138,12.1234037 77.4856433,12.5844483 78.3935196,13.4418605 L77.6636872,14.5883721 C76.9904181,13.8709452 76.0387325,13.4788318 75.053743,13.5130233 C73.9431285,13.5130233 73.2450279,13.947907 73.2450279,14.6595349 C73.2450279,15.3711628 74.1969832,15.6795349 75.2917318,15.9325581 C76.8227933,16.2725581 78.6473743,16.7232558 78.6473743,18.715814 C78.6473743,20.2181395 77.4098324,21.404186 75.0934078,21.404186 C73.7215239,21.4671333 72.3842597,20.9637265 71.396648,20.0125581 L72.1899441,18.8186047 Z" id="Path"></path>
                <polygon id="Path" points="83.978324 9.03767442 85.6204469 9.03767442 85.6204469 21.1590698 83.978324 21.1590698"></polygon>
                <path d="M87.2625698,9.86790698 C87.2753156,9.28938577 87.745085,8.82464932 88.3255866,8.81627907 C88.9064948,8.82058412 89.3763512,9.28890151 89.3806704,9.86790698 C89.3807028,10.1453839 89.2690389,10.4112725 89.0707026,10.6059863 C88.8723664,10.8007002 88.603943,10.9079572 88.3255866,10.9037209 C87.7459343,10.9081301 87.2712698,10.4456124 87.2625698,9.86790698 L87.2625698,9.86790698 Z M87.5243575,12.3823256 L89.1664804,12.3823256 L89.1664804,21.1590698 L87.5005587,21.1590698 L87.5243575,12.3823256 Z" id="Shape"></path>
                <path d="M91.4194413,13.8134884 L89.9597765,13.8134884 L89.9597765,12.3823256 L91.4194413,12.3823256 L91.4194413,11.7972093 C91.4194413,9.90744186 92.5300559,8.85581395 94.1007821,8.85581395 C94.6022676,8.83554559 95.1002561,8.94736235 95.544581,9.18 L95.1955307,10.3976744 C94.952969,10.2638287 94.6794528,10.1956737 94.4022346,10.2 C93.6089385,10.2 93.0853631,10.7455814 93.0853631,11.7813953 L93.0853631,12.3665116 L94.8702793,12.3665116 L94.8702793,13.7976744 L93.0853631,13.7976744 L93.0853631,21.1432558 L91.4432402,21.1432558 L91.4194413,13.8134884 Z" id="Path"></path>
                <path d="M99.5586592,12.1609302 C102.200335,12.1609302 103.842458,14.2167442 103.842458,16.9051163 L103.842458,17.3083721 L96.8773184,17.3083721 C96.9627841,18.8776237 98.2922485,20.0902573 99.8680447,20.0362791 C100.842933,20.033679 101.778703,19.6537933 102.477989,18.9767442 L103.271285,20.044186 C102.303504,20.9361582 101.018336,21.4058429 99.7014525,21.3488372 C98.4661902,21.3925402 97.2692096,20.9176192 96.4020103,20.0397313 C95.5348109,19.1618433 95.0769754,17.9615519 95.14,16.7311628 C95.0992093,15.5358381 95.5461602,14.3750614 96.3788089,13.5138503 C97.2114576,12.6526392 98.3587183,12.1645181 99.5586592,12.1609302 Z M96.8614525,16.1144186 L102.24,16.1144186 C102.244566,15.4092379 101.961703,14.732424 101.456209,14.2390201 C100.950715,13.7456162 100.265907,13.4779036 99.5586592,13.4972093 C98.0934693,13.496805 96.8959275,14.6623391 96.8614525,16.1223256 L96.8614525,16.1144186 Z" id="Shape"></path>
                <path d="M109.117877,12.1609302 C110.416092,12.0946706 111.659158,12.6903413 112.417989,13.7423256 L111.32324,14.7386047 C110.850136,14.0303751 110.04239,13.6173496 109.189274,13.6474419 C107.459888,13.6474419 106.349274,14.975814 106.349274,16.8102326 C106.349274,18.6446512 107.459888,19.9730233 109.189274,19.9730233 C110.041018,19.9970324 110.845979,19.5854312 111.32324,18.8818605 L112.417989,19.8781395 C111.659158,20.9301238 110.416092,21.5257945 109.117877,21.4595349 C107.894133,21.4853963 106.714822,21.0023258 105.862961,20.126253 C105.0111,19.2501802 104.563588,18.0601894 104.627821,16.8418605 C104.540138,15.6116585 104.977763,14.401756 105.832845,13.5103238 C106.687927,12.6188917 107.880941,12.1288371 109.117877,12.1609302 Z" id="Path"></path>
                <path d="M114.044246,23.2702326 C114.619683,23.3250457 115.154057,22.9677578 115.321453,22.4162791 L115.829162,21.2539535 L112.203799,12.3823256 L113.956983,12.3823256 L116.709721,19.2693023 L119.462458,12.3823256 L121.231508,12.3823256 L116.892179,22.8353488 C116.494917,24.0275589 115.341827,24.8035076 114.083911,24.7251163 C113.739233,24.7195776 113.396149,24.6771639 113.060559,24.5986047 L113.314413,23.127907 C113.54703,23.2190319 113.794326,23.2672574 114.044246,23.2702326 L114.044246,23.2702326 Z" id="Path"></path>
                <path d="M125.777095,12.1609302 C127.07531,12.0946706 128.318376,12.6903413 129.077207,13.7423256 L127.982458,14.7386047 C127.5083,14.0315526 126.701263,13.6188893 125.848492,13.6474419 C124.119106,13.6474419 123.000559,14.975814 123.000559,16.8102326 C123.000559,18.6446512 124.119106,19.9730233 125.848492,19.9730233 C126.699559,19.9940652 127.503174,19.583152 127.982458,18.8818605 L129.077207,19.8781395 C128.318376,20.9301238 127.07531,21.5257945 125.777095,21.4595349 C124.553351,21.4853963 123.37404,21.0023258 122.522179,20.126253 C121.670318,19.2501802 121.222806,18.0601894 121.287039,16.8418605 C121.199356,15.6116585 121.636981,14.401756 122.492063,13.5103238 C123.347145,12.6188917 124.540159,12.1288371 125.777095,12.1609302 Z" id="Path"></path>
                <polygon id="Path" points="130.156089 9.03767442 131.798212 9.03767442 131.798212 21.1590698 130.156089 21.1590698"></polygon>
                <path d="M137.541676,12.1609302 C140.191285,12.1609302 141.833408,14.2167442 141.833408,16.9051163 L141.833408,17.3083721 L134.860335,17.3083721 C134.945801,18.8776237 136.275265,20.0902573 137.851061,20.0362791 C138.826279,20.0353435 139.762651,19.6552129 140.461006,18.9767442 L141.254302,20.044186 C140.286634,20.9311502 139.006026,21.4002107 137.692402,21.3488372 C136.45714,21.3925402 135.260159,20.9176192 134.39296,20.0397313 C133.525761,19.1618433 133.067925,17.9615519 133.13095,16.7311628 C133.08796,15.5365905 133.533096,14.3757536 134.364499,13.5142845 C135.195902,12.6528153 136.342412,12.1644464 137.541676,12.1609302 Z M134.844469,16.1144186 L140.223017,16.1144186 C140.229825,15.4085551 139.947671,14.7304223 139.441674,14.2365281 C138.935678,13.7426339 138.249562,13.4756555 137.541676,13.4972093 C136.084364,13.509484 134.898747,14.67024 134.860335,16.1223256 L134.844469,16.1144186 Z" id="Shape"></path>
            </g>
        </g>
    </g>
</svg>